<svg xmlns="http://www.w3.org/2000/svg" version="1.1" xmlns:xlink="http://www.w3.org/1999/xlink" xmlns:svgjs="http://svgjs.com/svgjs" width="1440" height="560" preserveAspectRatio="none" viewBox="0 0 1440 560"><g mask="url(&quot;#SvgjsMask1014&quot;)" fill="none"><rect width="1440" height="560" x="0" y="0" fill="rgba(252, 238, 208, 1)"></rect><path d="M0,437.805C80.693,435.861,147.33,376.821,207.83,323.39C261.611,275.893,303.446,217.085,326.758,149.225C348.606,85.626,351.672,17.035,335.493,-48.237C320.287,-109.583,275.459,-155.397,238.536,-206.692C197.613,-263.543,170.321,-334.801,107.263,-365.303C40.58,-397.558,-42.045,-404.347,-110.225,-375.392C-176.465,-347.261,-211.653,-276.904,-247.642,-214.583C-278.195,-161.675,-284.204,-101.878,-301.937,-43.412C-323.457,27.539,-379.783,93.559,-363.006,165.779C-345.75,240.063,-275.395,287.828,-214.367,333.561C-149.468,382.194,-81.075,439.758,0,437.805" fill="#f9dea5"></path><path d="M1440 1011.39C1535.94 1008.948 1632.762 1034.316 1721.786 998.467 1820.944 958.538 1914.641 894.029 1965.258 799.877 2017.212 703.239 2036.612 583.091 2000.863 479.36 1966.784 380.476 1852.058 341.25800000000004 1780.811 264.686 1712.964 191.76799999999997 1682.223 83.82900000000001 1592.535 40.51400000000001 1497.462-5.400999999999954 1379.387-18.187000000000012 1282.645 24.097999999999956 1188.455 65.267 1160.3890000000001 181.702 1092.641 259.012 1024.376 336.911 898.969 377.573 883.181 479.94100000000003 867.404 582.238 970.219 660.819 1016.384 753.4590000000001 1060.607 842.202 1064.154 961.4839999999999 1148.843 1013.049 1233.453 1064.566 1340.972 1013.9100000000001 1440 1011.39" fill="#fffefb"></path></g><defs><mask id="SvgjsMask1014"><rect width="1440" height="560" fill="#ffffff"></rect></mask></defs></svg>