<svg xmlns="http://www.w3.org/2000/svg" version="1.1" xmlns:xlink="http://www.w3.org/1999/xlink" xmlns:svgjs="http://svgjs.com/svgjs" width="1440" height="560" preserveAspectRatio="none" viewBox="0 0 1440 560"><g mask="url(&quot;#SvgjsMask1057&quot;)" fill="none"><rect width="1440" height="560" x="0" y="0" fill="rgba(252, 238, 208, 1)"></rect><path d="M0,516.415C95.198,511.407,137.45,389.451,222.063,345.537C319.991,294.713,472.067,336.051,529.285,241.716C584.829,150.141,506.335,33.755,472.883,-67.99C444.674,-153.79,403.63,-230.615,350.079,-303.345C292.251,-381.883,236.676,-464.845,149.089,-507.749C52.713,-554.959,-60.456,-586.749,-162.845,-554.6C-264.76,-522.6,-321.598,-419.997,-390.462,-338.337C-458.365,-257.816,-557.107,-186.054,-562.357,-80.855C-567.576,23.733,-478.077,105.416,-416.847,190.368C-366.405,260.353,-305.556,316.568,-237.604,369.718C-162.772,428.25,-94.873,521.406,0,516.415" fill="#f9dea5"></path><path d="M1440 1135.4859999999999C1571.897 1145.183 1722.778 1243.792 1827.7269999999999 1163.315 1934.965 1081.083 1854.281 897.758 1910.362 774.807 1966.4 651.95 2159.35 592.668 2149.441 457.998 2139.721 325.902 1972.528 270.189 1867.312 189.73200000000003 1782.3809999999999 124.78699999999998 1690.545 80.738 1594.542 33.67700000000002 1477.154-23.866999999999962 1369.138-143.87300000000005 1241.153-117.21199999999999 1113.964-90.71699999999998 1062.1979999999999 60.81099999999998 980.269 161.64 901.237 258.903 793.588 340.623 769.243 463.56 744.446 588.779 791.402 715.934 847.829 830.4359999999999 903.058 942.506 976.1890000000001 1051.661 1087.258 1108.877 1194.248 1163.992 1319.972 1126.662 1440 1135.4859999999999" fill="#fffefb"></path></g><defs><mask id="SvgjsMask1057"><rect width="1440" height="560" fill="#ffffff"></rect></mask></defs></svg>